<svg width="32px" height="21px" viewBox="0 0 32 21" version="1.1" xmlns="http://www.w3.org/2000/svg" xmlns:xlink="http://www.w3.org/1999/xlink">
    <defs>
        <linearGradient x1="79.0306389%" y1="12.2137407%" x2="16.596678%" y2="50%" id="linearGradient-1">
            <stop stop-color="#87C3FF" offset="0%"></stop>
            <stop stop-color="#4F90FF" offset="100%"></stop>
        </linearGradient>
    </defs>
    <g id="页面1" stroke="none" stroke-width="1" fill="none" fill-rule="evenodd">
        <g id="大治安-警情备份" transform="translate(-24.000000, -243.000000)">
            <g id="警情" transform="translate(24.000000, 144.000000)">
                <g id="card_今日警情">
                    <path d="M16.5,98.8660254 L28.2224319,105.633975 C29.1506351,106.169873 29.7224319,107.160254 29.7224319,108.232051 L29.7224319,121.767949 C29.7224319,122.839746 29.1506351,123.830127 28.2224319,124.366025 L16.5,131.133975 C15.5717968,131.669873 14.4282032,131.669873 13.5,131.133975 L1.77756814,124.366025 C0.849364905,123.830127 0.277568136,122.839746 0.277568136,121.767949 L0.277568136,108.232051 C0.277568136,107.160254 0.849364905,106.169873 1.77756814,105.633975 L13.5,98.8660254 C14.4282032,98.330127 15.5717968,98.330127 16.5,98.8660254 Z" id="多边形" fill="#4F90FF" opacity="0.25" transform="translate(15.000000, 115.000000) rotate(-34.000000) translate(-15.000000, -115.000000) "></path>
                    <path d="M12.5,100.866025 L23.3564065,107.133975 C24.2846097,107.669873 24.8564065,108.660254 24.8564065,109.732051 L24.8564065,122.267949 C24.8564065,123.339746 24.2846097,124.330127 23.3564065,124.866025 L12.5,131.133975 C11.5717968,131.669873 10.4282032,131.669873 9.5,131.133975 L-1.35640646,124.866025 C-2.28460969,124.330127 -2.85640646,123.339746 -2.85640646,122.267949 L-2.85640646,109.732051 C-2.85640646,108.660254 -2.28460969,107.669873 -1.35640646,107.133975 L9.5,100.866025 C10.4282032,100.330127 11.5717968,100.330127 12.5,100.866025 Z" id="多边形" fill="url(#linearGradient-1)" opacity="0.64" transform="translate(11.000000, 116.000000) rotate(-34.000000) translate(-11.000000, -116.000000) "></path>
                </g>
            </g>
        </g>
    </g>
</svg>