<svg width="220px" height="120px" viewBox="0 0 220 120" version="1.1" xmlns="http://www.w3.org/2000/svg" xmlns:xlink="http://www.w3.org/1999/xlink">
    <defs>
        <linearGradient x1="67.1209533%" y1="59.9196453%" x2="19.7682359%" y2="48.7811088%" id="linearGradient-1">
            <stop stop-color="#F1F6FF" offset="0%"></stop>
            <stop stop-color="#CEE4FC" stop-opacity="0" offset="100%"></stop>
        </linearGradient>
        <linearGradient x1="8.24066768%" y1="39.1870658%" x2="78.5469102%" y2="75.9206351%" id="linearGradient-2">
            <stop stop-color="#87C3FF" offset="0%"></stop>
            <stop stop-color="#4F90FF" offset="100%"></stop>
        </linearGradient>
    </defs>
    <g id="页面1" stroke="none" stroke-width="1" fill="none" fill-rule="evenodd">
        <g id="大治安-警情备份" transform="translate(-76.000000, -144.000000)">
            <g id="警情" transform="translate(24.000000, 144.000000)">
                <g id="card_今日警情">
                    <path d="M266.053475,55.710848 C264.382197,56.2025277 262.460316,56.7787945 260.228546,57.4525306 C259.819861,57.5759061 259.460869,57.6840954 259.118036,57.7871653 C255.963664,58.7355026 253.334493,59.4912527 251.137691,60.0692739 C249.93666,58.1592505 247.871108,56.1164345 245.045835,53.9136859 C242.704629,52.0883451 239.873607,50.1808489 236.630101,48.2016673 C234.119917,46.6699573 231.463897,45.1558162 228.631073,43.6176961 C228.253934,43.4129232 227.879474,43.2108587 227.50306,43.0089215 L234.812007,39.0974793 C237.523611,37.1113753 238.369462,35.4516071 237.158043,34.1144867 C236.14734,32.9989099 229.435246,28.059866 216.807411,19.125157 L207.465589,10.6583706 L195.069313,3.13269532 L194.630448,2.8667487 L187.869365,6.59806767 C186.428527,5.19318342 185.13021,3.94886443 183.869761,2.76373646 C177.976726,-2.77715035 165.495666,-12.6776275 146.389924,-26.9701982 C151.253139,-28.7519701 155.23045,-29.2046063 158.321857,-28.3281067 C167.696193,-25.6702226 170.580604,-20.8860311 175.628324,-17.1649933 C178.99347,-14.6843014 185.723762,-10.0773022 195.819201,-3.34399567 C216.010078,10.8313865 228.74956,20.0453849 234.037647,24.2979996 C241.969778,30.6769215 259.276244,51.4084179 262.881758,53.0031484 C263.693885,53.3623549 264.762112,54.3418697 266.053475,55.710848 Z M269.314954,59.3432536 C273.639298,64.2481684 279.400774,70.7219479 285.957046,74.2662217 C296.773587,80.1135668 316.243362,109.881869 316.243362,110.945023 C316.243362,112.008177 325.617698,126.892328 328.502109,136.460711 C328.98986,138.078715 317.517509,139.310807 294.085057,140.156988 C290.103591,130.299675 284.81804,115.28148 282.791244,107.451616 C282.078424,104.697872 280.2441,101.073281 277.311487,96.4515804 C281.070937,95.7228749 286.877555,94.754378 294.654727,93.5660567 C296.130265,96.8705845 303.952991,112.196286 306.037087,116.030202 C306.983735,117.771662 309.637303,124.872054 313.963561,137.252116 L315.364427,136.987048 C311.012051,124.532247 308.362009,117.441289 307.380072,115.634912 C305.344964,111.891114 295.860287,93.2798389 295.860287,92.9490044 C295.860287,92.3335875 286.613495,80.0421609 283.462492,76.1777576 C281.477768,73.7436839 277.969579,70.5168415 275.398315,68.6247958 C274.104788,67.6729635 270.659296,64.9941071 265.071467,60.5955073 C266.67004,60.1172305 268.074868,59.7020927 269.314954,59.3432536 Z M288.148438,140.355234 C263.338969,141.121446 227.094067,141.518675 179.413732,141.546922 C178.349009,137.875017 177.497726,135.763859 176.818357,135.097315 C176.523157,134.807687 176.167459,132.103065 176.167459,127.806508 C176.167459,123.071117 176.525064,116.300811 177.240937,107.504901 C178.672684,101.538952 179.865417,96.9775567 180.81672,93.8275153 C180.872619,93.6424168 180.927654,93.4622992 180.981817,93.2871774 C187.701127,95.5440296 192.46064,96.6742338 195.332776,96.6742338 C197.417161,96.6742338 203.38093,95.1579186 210.977996,92.8419604 C218.702344,90.4872003 223.473122,88.8404525 223.537673,88.1730006 L223.538166,88.192461 C223.536326,88.3588526 223.519078,88.3826079 223.462855,88.4154409 L223.491691,88.399919 C223.59344,88.3455391 223.743975,88.2741086 223.937337,88.1891567 C224.392719,87.9890888 225.061654,87.7241406 225.899308,87.4117852 C227.572406,86.7878984 229.825896,86.0092396 232.147908,85.2534974 C234.085223,84.6229616 235.909081,84.0599692 237.500299,83.5992165 C238.633062,84.9366507 239.449166,86.0815483 239.449166,86.5628968 C239.449166,88.0521479 240.658649,91.9681003 243.091648,98.4131943 L243.238774,98.8029363 L243.788483,98.8029363 C259.980883,98.8029363 269.106991,98.5109141 271.805397,97.8460271 C274.688629,102.34791 276.476752,105.810874 277.107672,108.248228 C279.119842,116.021589 284.0875,130.250665 288.148438,140.355234 Z M175.017951,141.548478 C161.211568,141.550114 146.47383,141.521699 130.804737,141.463232 L61.1372776,157.547232 L52.3199013,70.7491859 C71.7044237,67.2314453 85.4953191,66.12103 93.4860825,67.3589128 C98.3102483,68.1062446 104.925194,68.9543798 115.891071,70.2717934 C116.616867,70.3589886 117.376506,70.4500494 118.216203,70.5505411 C130.40392,72.0091185 136.898536,72.7963434 140.978431,73.3461328 C140.698795,74.3075207 139.907877,75.9599168 138.698074,78.1707661 C138.555858,78.4306578 138.407732,78.6986406 138.252555,78.9769692 C137.935877,79.5449669 137.611388,80.1179746 137.192706,80.8509585 C137.074306,81.0582401 136.941472,81.2904111 136.704095,81.7052563 C136.517068,82.0322661 136.38617,82.2617553 136.265386,82.4746915 C135.520018,83.7887431 135.305557,84.1987644 135.305557,84.4341942 L136.751996,84.4341942 C136.751996,84.4296699 137.085269,83.7924944 137.600217,82.8846638 C137.720335,82.6729005 137.850759,82.4442433 138.037281,82.1181175 C138.274517,81.7035171 138.407554,81.470992 138.526147,81.2633728 C138.946295,80.5278232 139.272236,79.9522506 139.590755,79.3809505 C139.747085,79.1005545 139.896388,78.8304411 140.039823,78.5683208 C141.288986,76.2855452 142.092667,74.618392 142.398422,73.5415731 C144.315249,73.8117272 145.640158,74.0277841 146.898663,74.2592994 C149.755028,74.7847582 151.547552,75.2523649 161.623852,78.002139 C162.181627,78.154353 162.681847,78.2904687 163.160506,78.4202064 C172.920421,81.065574 178.317127,82.2625341 182.109946,82.3043544 C181.472834,84.0128675 180.125176,86.4484795 179.334206,87.0305087 C177.848239,88.1239463 176.07192,94.005856 172.945986,107.040294 L172.916866,107.222127 C171.393561,125.904002 171.393561,135.096678 173.346903,137.013147 C173.693523,137.353223 174.258834,138.888198 175.017951,141.548478 Z M51.8825949,66.4443519 L44.3425523,-7.7796523 L125.170461,-16.9464337 C127.450652,-14.8226173 128.787226,-13.5452352 129.160975,-13.1327044 C129.837787,-12.3856643 137.269425,-8.14473753 137.112714,-8.24047828 C139.808762,-6.59336191 141.744476,-5.15788753 142.898484,-3.86207933 C143.630826,-3.03974925 143.984191,-2.33678502 143.984191,-1.77825856 C143.984191,2.75949575 154.594005,26.9128699 156.914401,28.6203163 C157.205797,28.8347376 159.330458,31.9255894 162.870152,37.2879568 C161.19911,37.6407326 158.055716,38.4384044 152.899555,39.793448 L151.939606,40.0457234 L151.939606,46.1175485 C151.939606,46.2987497 152.100573,47.5458223 152.511568,50.6205003 C152.661772,51.7441901 152.834408,53.0286088 153.090818,54.9317334 C153.251501,56.1241075 153.251501,56.1241075 153.417471,57.3555233 C153.551632,58.3510434 153.654465,59.1145277 153.754693,59.8594177 L153.783237,60.0715802 C154.533349,65.6476223 155.052757,69.5717641 155.327293,71.7621615 C151.790927,70.8265093 150.338644,70.5036878 148.301915,70.1290098 C144.189757,69.3725347 139.832865,68.824193 119.144984,66.3483497 C118.30638,66.2479889 117.54788,66.1570646 116.823341,66.0700203 C105.947582,64.7634332 99.3850815,63.9220224 94.6780089,63.19283 C85.7693836,61.8127573 71.5701971,62.9154495 51.8825949,66.4443519 Z M129.615781,-17.9528871 C133.85752,-20.7687891 137.732536,-23.0344896 141.240827,-24.7499884 C155.018553,-14.4574987 165.399492,-6.42020792 172.370145,-0.650086219 C168.251219,0.615781493 161.425774,3.8123951 151.787854,8.9647311 C149.658841,3.74412124 148.323508,-0.294971041 148.323508,-1.77825856 C148.323508,-3.04261929 147.684849,-4.31313037 146.52791,-5.61223084 C145.084317,-7.23320765 142.885378,-8.86388282 139.884608,-10.6971648 C139.11101,-11.1697844 132.989878,-14.6628598 132.771505,-14.9038919 C132.408435,-15.3046357 131.360605,-16.3170579 129.615781,-17.9528871 Z M277.360526,57.3703682 C277.792653,57.3170331 278.165367,57.2932369 278.503019,57.2932369 C290.338874,57.2932369 315.582783,53.7736607 321.048885,49.7514711 C326.355182,45.8468721 354.08963,33.7295125 361.058085,32.1912067 C368.138372,30.628214 365.639318,26.7350257 359.39556,28.1133523 C351.514935,29.853022 322.944791,42.3355029 316.957738,46.7410311 C312.984416,49.6647701 288.805716,53.0358318 278.503019,53.0358318 C276.286013,53.0358318 274.158346,53.4108348 269.312794,54.7707988 C266.664314,53.6098175 264.771734,51.4582087 263.635053,48.3159725 C261.712112,43.0002042 240.177751,24.1083525 199.031971,-8.35958239 L195.426457,-8.35958239 L183.888813,-15.801658 L186.052122,-18.4595422 C180.2833,-22.0033877 177.398888,-24.3068873 177.398888,-25.370041 C177.398888,-26.9647715 160.813525,-36.5331544 158.650217,-36.5331544 C157.499557,-36.5331544 286.060736,-54.310775 365.453958,2.12637947 C435.324724,51.7944375 329.39882,149.373162 332.283231,142.462663 C332.408049,142.163623 324.966086,120.330654 324.954541,119.875679 C324.78822,113.321313 311.060163,97.8689291 293.882738,74.334184 C282.431122,58.644354 280.250644,56.64692 287.341306,68.3418821 L277.360526,57.3703682 Z M178.8637,54.4080013 C183.852912,52.9094384 187.617989,51.8202378 190.155785,51.1411766 C191.42023,50.8028377 192.376033,50.5674434 193.016106,50.436138 C193.345613,50.9317526 193.687628,51.4649722 194.040632,52.0349908 C197.542192,59.3905499 199.971356,63.4965068 201.75401,64.8082595 C202.700826,65.5049665 204.227584,68.0452492 206.108856,72.220716 C204.327943,72.9368005 202.815789,73.592744 201.683511,74.1481965 C198.336277,75.7902208 191.81571,77.3373821 186.101535,77.8607417 C185.814635,76.1950986 185.5065,73.5334936 185.203478,69.9658635 L185.189437,69.8005557 L185.129579,69.6408893 C182.489023,62.5973936 180.420724,57.5529704 178.8637,54.4080013 Z M178.353811,53.4115467 C177.813932,52.3947577 177.344761,51.6426766 176.943097,51.1500742 C176.156422,50.1852935 175.097847,48.5903809 168.918996,39.1570295 L168.807709,38.9871381 C162.962628,30.0647753 160.906433,27.0421627 159.982762,26.3624863 C159.942856,26.3331221 159.859271,26.2109777 159.738333,26.0078528 C164.773993,26.1250767 168.850334,25.7330873 171.987894,24.8033417 C181.976161,38.4159002 187.194865,44.9311471 189.06673,45.8494123 C189.778944,46.1987975 190.92429,47.431237 192.35552,49.4686437 C191.690795,49.6139383 190.794352,49.837772 189.661475,50.1409063 C187.108904,50.8239207 183.340724,51.913877 178.353811,53.4115467 Z M223.747741,70.6885963 C226.755591,73.8682714 228.57326,75.6760026 229.684839,76.4779669 C228.862871,77.0285013 227.885674,77.5819487 226.753264,78.1374653 C226.217213,78.4004314 224.934777,78.6706645 222.723124,79.0050676 C221.965249,79.1196587 219.095194,79.5273831 218.619825,79.5972458 C214.7068,80.1723244 212.375546,80.6529399 210.871512,81.3169792 C209.538221,81.9056346 207.061532,82.4440293 202.768063,83.1655813 C202.11213,83.2758163 199.845965,83.6493367 199.86279,83.6465451 C198.735011,83.8336704 197.92677,83.9726141 197.197617,84.1069464 C195.291949,84.4580288 194.12022,84.7442158 193.485167,85.0557486 C191.624358,85.9685903 192.668515,89.3115355 196.34095,95.5208888 C195.926715,95.5794728 195.588047,95.6098825 195.332776,95.6098825 C192.692197,95.6098825 187.995575,94.4844399 181.318082,92.2298634 C181.584862,91.4164614 181.826727,90.7440023 182.042518,90.2147092 C182.203588,89.8196353 182.346399,89.5139296 182.464337,89.3056481 C182.513794,89.2183056 182.534434,89.1913045 182.402566,89.2883387 C183.995707,88.1160383 185.948257,84.7008333 186.545992,82.1092933 C193.207101,81.5303795 200.713295,79.7409112 204.892871,77.6905716 C208.282181,76.027906 216.022441,73.1796905 223.747741,70.6885963 Z M225.101849,70.2555922 C232.823515,67.8074002 240.274022,65.808047 243.065263,65.808047 C244.483114,65.808047 246.063542,65.6374031 247.996452,65.2702317 C249.004858,66.73851 250.364517,68.595962 252.153783,70.9716678 C252.669304,71.656153 255.126555,74.8803555 257.504316,78.0079499 C251.633518,79.6350102 244.775485,81.2411404 243.065263,81.2411404 C242.244622,81.2411404 240.474314,81.6277058 238.088188,82.2895394 C235.464389,79.3052931 231.804921,75.9907851 230.801994,75.9205209 L230.856819,75.9206495 C230.920863,75.9227985 230.944308,75.9271353 230.952045,75.9292663 L230.946488,75.9250663 C230.857522,75.8709092 230.732919,75.7811113 230.578736,75.6582029 C230.234506,75.3837949 229.76474,74.9625049 229.174114,74.3975157 C228.162575,73.4298822 226.804631,72.0487801 225.101847,70.2555929 Z M236.703627,82.6841661 C235.161444,83.1344291 233.424682,83.6741309 231.562814,84.2801106 C225.484484,86.2584175 222.113267,87.5146093 222.091999,88.1533613 L222.091841,88.1417814 C222.090415,87.9209305 222.063277,87.9379769 222.150488,87.8951989 C222.003918,87.9670803 221.77326,88.065968 221.468752,88.1868869 C220.847865,88.4334383 219.943322,88.7625846 218.823751,89.1495342 C216.526151,89.9436374 213.489719,90.9241893 210.424385,91.8586531 C205.141497,93.4691366 200.58341,94.7031388 197.770196,95.2693714 C196.077662,92.4170374 194.956272,90.1787738 194.407158,88.5625277 C193.87652,87.0006626 193.926475,86.1184511 194.287507,85.9413424 C195.099307,85.5431045 194.911909,85.577629 203.090121,84.2032144 C207.554726,83.4529014 210.09663,82.90033 211.615699,82.2296529 C212.922951,81.6524938 215.163515,81.1905751 218.903119,80.6409835 C219.37055,80.5722873 222.2461,80.1637822 223.014255,80.0476369 C225.435883,79.6814855 226.798888,79.3942749 227.555604,79.0230591 C228.880878,78.3729304 230.013236,77.7202472 230.9527,77.063852 C231.746658,77.5583215 234.535177,80.2536896 236.703627,82.6841661 Z M238.873387,83.21115 C240.944309,82.6417758 242.459757,82.3054917 243.065263,82.3054917 C244.993431,82.3054917 252.12719,80.6498238 258.216482,78.9449622 C259.681154,80.8726629 261.035261,82.6589175 261.78402,83.6583703 C262.721289,84.9094483 263.599326,86.0926082 264.43542,87.2323886 C267.082762,90.8412977 269.338687,94.0606416 271.189121,96.8934368 C268.940844,97.422495 259.776192,97.7313159 244.338487,97.7384584 C242.047625,91.6412411 240.895605,87.8839845 240.895605,86.5628968 C240.895605,85.9278935 240.064604,84.6587189 238.873387,83.21115 Z M276.685058,95.4748964 C274.735156,92.4657915 272.347115,89.0548267 269.526801,85.2101176 C268.682162,84.0586892 267.796022,82.8646102 266.850871,81.6030116 C266.155589,80.6749404 264.946175,79.0786739 263.611325,77.3211918 C265.523373,76.6902842 266.936555,76.136104 267.4429,75.7635134 C268.740471,74.8087057 272.498725,73.9444923 278.61299,73.2523176 L278.534188,72.8754123 C279.936515,74.1828326 281.266699,75.553555 282.22218,76.7253618 C284.658074,79.7127515 292.67728,90.3486914 294.172607,92.5526658 C286.276159,93.7602125 280.472004,94.7277663 276.685058,95.4748964 Z M263.637961,61.0256463 C269.461443,65.6112827 273.037202,68.3926085 274.375528,69.3774058 C275.431546,70.154469 276.657084,71.1698031 277.864966,72.2611904 C271.754101,72.9779158 267.97122,73.8695333 266.420114,75.0109034 C265.990509,75.327025 264.693764,75.8237558 262.913006,76.4021018 C260.427541,73.131914 257.748397,69.6170272 257.214352,68.9079455 C255.696416,66.8925002 254.49723,65.2605709 253.579696,63.9529195 C255.76938,63.3661042 258.308813,62.6294907 261.306317,61.7283146 C261.651985,61.6243921 262.013478,61.5154491 262.424566,61.3913482 C262.839942,61.2659527 263.24429,61.1440797 263.637961,61.0256463 Z M226.2715,42.3522055 C225.981716,42.1985642 225.688013,42.0434246 225.388431,41.885695 C224.788958,41.5700726 223.176601,40.7265962 223.050129,40.6601226 C220.751942,39.452191 215.529721,34.3969696 199.702687,18.4122418 L199.359832,18.0660005 C194.828013,13.4898597 191.506292,10.1624095 188.739036,7.44855125 L194.588665,4.22024687 L206.444532,11.4047591 L215.744841,19.8443528 C228.248647,28.6968554 235.03665,33.6917567 235.954533,34.7048825 C236.671699,35.4964646 236.071111,36.6749665 233.875236,38.2907847 L226.2715,42.3522055 Z M173.382651,0.192145327 C175.820786,2.23064553 177.797943,3.96266554 179.31345,5.38761038 C182.621623,8.49809815 186.221148,12.0487457 192.057987,17.9253232 C188.887359,18.7617451 186.604299,18.9453703 185.290275,18.5586044 C182.082832,17.6145354 180.478454,18.0402216 173.725244,20.6512089 C172.452334,21.1433532 171.532681,21.4761661 170.611862,21.7665565 C167.758417,22.6664219 163.553764,23.0095216 158.030102,22.7511078 C156.830544,20.3430326 155.259393,17.0318041 153.82329,13.7624976 C153.259593,12.4792343 152.727186,11.2344723 152.231967,10.0431775 C162.430819,4.57813744 169.524295,1.28426531 173.382651,0.192145327 Z M206.955655,32.8934263 C214.587733,40.457556 217.460898,42.954353 219.687227,44.1245156 C219.821433,44.1950542 221.431221,45.0371866 222.021728,45.3480887 C223.129687,45.9314288 224.153308,46.4773905 225.195837,47.0434458 C227.946772,48.5371035 230.519071,50.0035167 232.936891,51.4788663 C236.012681,53.3557083 238.67685,55.1507814 240.838163,56.8358672 C242.978791,58.5048268 244.563901,60.021295 245.521189,61.3224431 C244.549163,61.4762763 243.741147,61.5506419 243.065263,61.5506419 C242.325619,61.5506419 241.386349,61.6421413 240.287622,61.8105538 C239.781576,60.8816189 239.113026,60.0185105 238.51412,59.57781 C238.17949,59.3315747 237.84748,59.111888 237.374504,58.8165848 C235.321143,57.5345661 234.788826,57.1556653 233.518766,55.9095802 C233.278148,55.6735042 233.028185,55.4218811 232.712032,55.0988388 C232.586423,54.9704934 232.036414,54.4058647 231.8884,54.2547168 C229.512708,51.8287332 228.011758,50.6275663 226.031429,49.8989613 C225.007084,49.5220831 223.887793,48.6596582 222.423428,47.2217459 C222.144614,46.9479688 220.835185,45.6198869 220.504485,45.302264 C219.786019,44.612209 219.289493,44.2254059 218.799234,44.0450293 C217.859511,43.6992852 215.503478,43.7218004 213.516959,44.0698398 C210.940025,44.52132 209.357789,45.4219872 209.81876,46.7787957 C210.076371,47.53704 209.642461,48.525316 208.750529,49.4733363 C208.421617,49.8229306 208.057244,50.1330206 207.759145,50.3301987 C207.716161,50.3102823 207.670235,50.2890377 207.621182,50.2663463 C206.855291,50.6210115 206.855291,50.6210115 206.923681,50.6455061 L206.892777,50.7128103 C206.832067,50.8431066 206.75886,50.954834 206.647402,51.0624798 C206.400489,51.300946 206.039357,51.4393049 205.457849,51.4393049 C203.743553,51.4393049 202.109609,52.2408554 200.539957,53.7808777 L200.395313,53.9227912 L200.395313,54.1001831 C200.395313,54.7143161 200.43828,55.2806176 200.525516,55.7985954 C199.785675,54.3766621 198.975637,52.7447512 198.103846,50.9118915 L198.03118,50.7786573 C196.51892,48.3305303 195.187216,46.472464 193.959448,45.1638255 L202.270732,42.6155769 L201.689407,42.0655949 C198.593389,39.1365039 196.779215,37.2294382 196.779215,37.0705628 C196.779215,36.6152417 200.166959,34.1223956 200.795099,34.3535013 C202.043163,34.8126908 204.032802,34.294126 206.955655,32.8934263 Z M206.092515,32.0365588 C203.651639,33.1971743 202.040377,33.6216847 201.441966,33.4015166 C199.659373,32.7456629 195.332776,35.9293569 195.332776,37.0705628 C195.332776,37.5911748 196.72777,39.0860341 199.967533,42.1686929 L193.059247,44.2867806 C192.515237,43.8089007 191.989236,43.445509 191.47375,43.192631 C191.173093,43.0451403 189.333358,41.0145074 186.71854,37.7275136 C184.049172,34.371947 180.442579,29.6003628 175.902048,23.4166187 C181.035366,21.4350483 182.282,21.1121823 183.678693,21.5232805 C186.376087,22.3172234 190.014855,21.9705852 194.711758,20.6014715 L195.026454,20.9192754 C199.522857,25.4604786 203.142514,29.1034438 206.092515,32.0365588 Z M158.328647,72.5666402 C158.10584,70.6690072 157.566685,66.586625 156.662045,59.8618877 L156.633495,59.6496806 C154.776906,45.8514972 154.832484,46.2672787 154.832484,46.1175485 L154.832484,41.5464287 C160.054576,40.1802916 163.504455,39.3300657 164.137633,39.21314 C164.385753,39.590925 164.639529,39.9778223 164.898852,40.3736709 L165.010022,40.5433836 C171.418542,50.3273756 172.323231,51.6904322 173.222163,52.7928868 C174.512183,54.3749719 177.132928,60.3285249 180.88673,70.3306431 C181.175743,73.707784 181.460981,76.2543957 181.761244,78.0346601 C178.840698,77.8997787 173.720551,76.7454044 165.160311,74.4252015 C164.686006,74.2966439 164.189692,74.1615913 163.635668,74.0104008 C161.544585,73.4397543 159.802799,72.965281 158.328647,72.5666402 Z M202.239921,58.9382505 C202.438881,59.0870205 202.654492,59.218491 202.887021,59.3325607 C204.822174,60.2818724 205.487145,61.1789492 206.195113,63.7837127 C206.207479,63.8292095 206.228566,63.9080334 206.254305,64.0046404 C205.760399,63.3738114 205.285049,62.8908875 204.822371,62.5504295 C204.266692,62.141537 203.38764,60.9179785 202.239921,58.9382505 Z M238.859832,62.0552412 C231.844594,63.369084 220.121314,67.0183842 211.277822,70.2477032 C209.880529,69.5026789 208.976409,68.1158624 208.295215,66.010606 C208.174749,65.6383004 208.061903,65.2499599 207.931951,64.7700336 C207.878292,64.571866 207.667146,63.7724854 207.613463,63.5749762 C206.836928,60.7179372 205.990208,59.5756742 203.689361,58.4469669 C202.523165,57.8748759 201.875783,56.4975823 201.843057,54.278804 C203.112963,53.0765847 204.322677,52.5036561 205.457849,52.5036561 C206.502004,52.5036561 207.283714,52.204164 207.797945,51.7075227 C207.880703,51.6275958 207.951604,51.5483311 208.013535,51.4683643 C208.018309,51.4671529 208.023077,51.4659125 208.027838,51.4646431 C208.226781,51.4116031 208.428916,51.311272 208.653441,51.1688452 C209.058277,50.9120389 209.525664,50.5193326 209.939779,50.0791757 C211.045393,48.904037 211.601465,47.6375238 211.222012,46.5206526 C211.034086,45.9675186 211.969468,45.4350653 213.851984,45.1052474 C215.537194,44.8099975 217.590723,44.7903732 218.152367,44.997014 C218.372228,45.0779055 218.777245,45.3934214 219.356289,45.9495677 C219.672919,46.2536772 220.976107,47.5754295 221.265932,47.8600185 C222.86221,49.4274608 224.092892,50.3757133 225.384562,50.850946 C227.08308,51.475867 228.4756,52.5902599 230.714892,54.8769567 C230.861533,55.0267019 231.41138,55.5911636 231.53828,55.7208292 C231.85943,56.0489773 232.114483,56.3057247 232.361615,56.548191 C233.714033,57.87508 234.308001,58.2978638 236.438691,59.6281623 C236.884178,59.9063029 237.18967,60.1084432 237.491333,60.33042 C237.910495,60.6388572 238.434055,61.308986 238.859832,62.0552412 Z" id="形状结合" fill="url(#linearGradient-1)" transform="translate(216.842552, 59.179195) rotate(13.000000) translate(-216.842552, -59.179195) "></path>
                    <path d="M224,106 C223.275263,106 222.794974,104.201847 222,103 C221.69806,102.543525 220.996305,102.204301 220.737817,102.036533 C219.089989,100.967035 218,99.1108079 218,97 C218,93.6862915 220.686292,91 224,91 C227.313708,91 230,93.6862915 230,97 C230,99.1346647 228.885234,101.008962 227.206098,102.072494 C226.952062,102.233395 226.293793,102.551262 226,103 C225.221206,104.189529 224.72609,106 224,106 Z M224,100 C225.656854,100 227,98.6568542 227,97 C227,95.3431458 225.656854,94 224,94 C222.343146,94 221,95.3431458 221,97 C221,98.6568542 222.343146,100 224,100 Z" id="形状结合" fill="#DFE6F5"></path>
                    <ellipse id="椭圆形" fill="#DFE6F5" opacity="0.483491443" cx="224" cy="107.5" rx="3" ry="1.5"></ellipse>
                    <ellipse id="椭圆形备份-4" fill="#DFE6F5" opacity="0.483491443" cx="259.5" cy="65" rx="2.5" ry="1"></ellipse>
                    <path d="M168.5,37 C167.956447,37 167.59623,35.6813544 167,34.8 C166.773545,34.4652518 166.247229,34.2164877 166.053363,34.0934579 C164.817491,33.3091592 164,31.9479258 164,30.4 C164,27.9699471 166.014719,26 168.5,26 C170.985281,26 173,27.9699471 173,30.4 C173,31.9654208 172.163925,33.3399053 170.904573,34.1198291 C170.714047,34.2378234 170.220344,34.4709252 170,34.8 C169.415904,35.6723214 169.044567,37 168.5,37 Z M168.5,32.6 C169.742641,32.6 170.75,31.6150264 170.75,30.4 C170.75,29.1849736 169.742641,28.2 168.5,28.2 C167.257359,28.2 166.25,29.1849736 166.25,30.4 C166.25,31.6150264 167.257359,32.6 168.5,32.6 Z" id="形状" fill="#DFE5F0" opacity="0.824497768"></path>
                    <path d="M259.5,65 C258.956447,65 258.59623,63.6813544 258,62.8 C257.773545,62.4652518 257.247229,62.2164877 257.053363,62.0934579 C255.817491,61.3091592 255,59.9479258 255,58.4 C255,55.9699471 257.014719,54 259.5,54 C261.985281,54 264,55.9699471 264,58.4 C264,59.9654208 263.163925,61.3399053 261.904573,62.1198291 C261.714047,62.2378234 261.220344,62.4709252 261,62.8 C260.415904,63.6723214 260.044567,65 259.5,65 Z M259.5,60.6 C260.742641,60.6 261.75,59.6150264 261.75,58.4 C261.75,57.1849736 260.742641,56.2 259.5,56.2 C258.257359,56.2 257.25,57.1849736 257.25,58.4 C257.25,59.6150264 258.257359,60.6 259.5,60.6 Z" id="形状备份" fill="#DFE5F0"></path>
                    <path d="M249.620218,-30.6985089 L273.251617,-13.5292919 C275.705029,-11.7467839 276.731636,-8.58721263 275.794516,-5.70305402 L266.768125,22.0773225 C265.831005,24.9614811 263.143313,26.9142036 260.110729,26.9142036 L230.900713,26.9142036 C227.868129,26.9142036 225.180437,24.9614811 224.243317,22.0773225 L215.216926,-5.70305402 C214.279806,-8.58721263 215.306413,-11.7467839 217.759824,-13.5292919 L241.391224,-30.6985089 C243.844636,-32.4810169 247.166806,-32.4810169 249.620218,-30.6985089 Z" id="多边形" fill="#4F90FF" opacity="0.25" transform="translate(245.505721, -0.187866) rotate(-34.000000) translate(-245.505721, 0.187866) "></path>
                    <path d="M247.969485,-31.5872679 L270.1743,-15.4545255 C272.627712,-13.6720174 273.654319,-10.5124462 272.717199,-7.62828755 L264.235714,18.475038 C263.298594,21.3591966 260.610902,23.3119191 257.578318,23.3119191 L230.131658,23.3119191 C227.099074,23.3119191 224.411382,21.3591966 223.474262,18.475038 L214.992777,-7.62828755 C214.055657,-10.5124462 215.082264,-13.6720174 217.535676,-15.4545255 L239.740491,-31.5872679 C242.193903,-33.3697759 245.516073,-33.3697759 247.969485,-31.5872679 Z" id="多边形" fill="url(#linearGradient-2)" opacity="0.64" transform="translate(243.854988, -2.576625) rotate(-34.000000) translate(-243.854988, 2.576625) "></path>
                </g>
            </g>
        </g>
    </g>
</svg>