
<svg width="138px" height="120px" viewBox="0 0 138 120" version="1.1" xmlns="http://www.w3.org/2000/svg" xmlns:xlink="http://www.w3.org/1999/xlink">
    <defs>
        <linearGradient x1="61.8488345%" y1="98.2452884%" x2="24.3018122%" y2="-5.24916601%" id="linearGradient-1">
            <stop stop-color="#87D6FF" stop-opacity="0" offset="0%"></stop>
            <stop stop-color="#4FADFF" stop-opacity="0.971700175" offset="100%"></stop>
        </linearGradient>
        <linearGradient x1="63.4591764%" y1="98.2452884%" x2="20.8092434%" y2="-5.24916601%" id="linearGradient-2">
            <stop stop-color="#87D6FF" stop-opacity="0" offset="0%"></stop>
            <stop stop-color="#4FADFF" stop-opacity="0.971700175" offset="100%"></stop>
        </linearGradient>
        <linearGradient x1="9.40087266%" y1="44.125361%" x2="79.7377387%" y2="25.2497121%" id="linearGradient-3">
            <stop stop-color="#87B8E4" offset="0%"></stop>
            <stop stop-color="#73B0E7" stop-opacity="0.834517045" offset="100%"></stop>
        </linearGradient>
        <linearGradient x1="-3.13956416%" y1="50%" x2="50%" y2="100%" id="linearGradient-4">
            <stop stop-color="#FFFFFF" offset="0%"></stop>
            <stop stop-color="#EAF5FF" offset="100%"></stop>
        </linearGradient>
        <linearGradient x1="81.606819%" y1="60.0163746%" x2="26.7932308%" y2="88.6752369%" id="linearGradient-5">
            <stop stop-color="#D6EEFF" stop-opacity="0.253305288" offset="0%"></stop>
            <stop stop-color="#DCEFFF" offset="100%"></stop>
        </linearGradient>
        <linearGradient x1="36.0951706%" y1="5.72808799%" x2="81.0527286%" y2="101.384608%" id="linearGradient-6">
            <stop stop-color="#8ED8FF" stop-opacity="0.496230332" offset="0%"></stop>
            <stop stop-color="#86C1F8" offset="100%"></stop>
        </linearGradient>
        <linearGradient x1="37.7427542%" y1="2.29954991%" x2="67.7680284%" y2="100%" id="linearGradient-7">
            <stop stop-color="#BADEFB" offset="0%"></stop>
            <stop stop-color="#A4CFF3" offset="100%"></stop>
        </linearGradient>
        <linearGradient x1="49.4765456%" y1="4.82137835%" x2="51.7746907%" y2="101.384608%" id="linearGradient-8">
            <stop stop-color="#87C8F5" stop-opacity="0.496230332" offset="0%"></stop>
            <stop stop-color="#67AAE7" offset="100%"></stop>
        </linearGradient>
        <linearGradient x1="84.7222222%" y1="86.2819294%" x2="25.1939851%" y2="0%" id="linearGradient-9">
            <stop stop-color="#74BEED" offset="0%"></stop>
            <stop stop-color="#659CCC" offset="100%"></stop>
        </linearGradient>
        <linearGradient x1="39.7020206%" y1="0%" x2="75.5102041%" y2="100%" id="linearGradient-10">
            <stop stop-color="#4788C1" offset="0%"></stop>
            <stop stop-color="#4698E0" offset="100%"></stop>
        </linearGradient>
        <linearGradient x1="33.2736348%" y1="47.0005308%" x2="72.3457033%" y2="52%" id="linearGradient-11">
            <stop stop-color="#AEDEFF" offset="0%"></stop>
            <stop stop-color="#9AD0FF" offset="100%"></stop>
        </linearGradient>
        <linearGradient x1="65.5381173%" y1="43.1174926%" x2="0%" y2="60.0475624%" id="linearGradient-12">
            <stop stop-color="#87D6FF" offset="0%"></stop>
            <stop stop-color="#4FADFF" offset="100%"></stop>
        </linearGradient>
        <linearGradient x1="55.8179776%" y1="50.6303983%" x2="56.2599298%" y2="48.9210973%" id="linearGradient-13">
            <stop stop-color="#FFFFFF" offset="0%"></stop>
            <stop stop-color="#F9FCFF" offset="33.5191312%"></stop>
            <stop stop-color="#B1DCFF" offset="100%"></stop>
        </linearGradient>
        <linearGradient x1="65.5381173%" y1="42.9236287%" x2="0%" y2="60.3305785%" id="linearGradient-14">
            <stop stop-color="#87D6FF" offset="0%"></stop>
            <stop stop-color="#4FADFF" offset="100%"></stop>
        </linearGradient>
        <linearGradient x1="65.5381173%" y1="43.7092503%" x2="0%" y2="59.1836735%" id="linearGradient-15">
            <stop stop-color="#87D6FF" offset="0%"></stop>
            <stop stop-color="#4FADFF" offset="100%"></stop>
        </linearGradient>
    </defs>
    <g id="页面1" stroke="none" stroke-width="1" fill="none" fill-rule="evenodd">
        <g id="大治安-警情备份" transform="translate(-438.000000, -144.000000)">
            <g id="天气" transform="translate(304.000000, 144.000000)">
                <g id="card_天气">
                    <path d="M247.0625,120 C253.458865,120 261.771365,120 272,120 L272,2.80316405 C268.128192,-9.9123036 257.546295,-16.2700374 240.254311,-16.2700374 C214.316334,-16.2700374 196,8.82183862 196,40.4121675 C196,72.0024964 221.124523,120 247.0625,120 Z" id="椭圆形" fill="url(#linearGradient-1)" opacity="0.64"></path>
                    <path d="M245.421875,116 C252.239054,116 261.098429,116 272,116 L272,-1.19683595 C267.873467,-13.9123036 256.595394,-20.2700374 238.165778,-20.2700374 C210.521356,-20.2700374 191,4.82183862 191,36.4121675 C191,68.0024964 217.777452,116 245.421875,116 Z" id="椭圆形" fill="url(#linearGradient-2)" opacity="0.25"></path>
                    <g id="编组-10" transform="translate(187.000000, 27.000000)">
                        <path d="M39.5,39.5 L39.5,14 L46.5,14 L46.5,39.5 L72,39.5 L72,46.5 L46.5,46.5 L46.5,72 L39.5,72 L39.5,46.5 L14,46.5 L14,39.5 L39.5,39.5 Z" id="形状结合" fill="url(#linearGradient-3)" transform="translate(43.000000, 43.000000) rotate(-315.000000) translate(-43.000000, -43.000000) "></path>
                        <path d="M38.5,38.5 L38.5,13 L45.5,13 L45.5,38.5 L71,38.5 L71,45.5 L45.5,45.5 L45.5,71 L38.5,71 L38.5,45.5 L13,45.5 L13,38.5 L38.5,38.5 Z" id="形状结合" fill="url(#linearGradient-4)" transform="translate(42.000000, 42.000000) rotate(-315.000000) translate(-42.000000, -42.000000) "></path>
                        <polygon id="矩形" fill="#6C92B4" opacity="0.240094866" transform="translate(53.693486, 53.768635) rotate(-4.000000) translate(-53.693486, -53.768635) " points="52.5941728 47.0668626 54.9494539 49.8336646 54.9494539 60.4704077 52.437519 57.536639"></polygon>
                        <polygon id="三角形" fill="#B9DFFF" points="43 25 59 42 27 42"></polygon>
                        <polygon id="三角形" fill="url(#linearGradient-5)" points="43 25 32.5 42 28.5 42"></polygon>
                        <polygon id="三角形" fill="url(#linearGradient-6)" opacity="0.643298921" points="43 25 59 42 48.5 42"></polygon>
                        <polygon id="矩形" fill="url(#linearGradient-7)" points="33 42 53 42 56 82 30 82"></polygon>
                        <polygon id="矩形" fill="url(#linearGradient-8)" opacity="0.643298921" points="47 42 53 42 56 82 50 82"></polygon>
                        <polygon id="矩形" fill="#84B9E9" opacity="0.778576079" points="33 42 53 42 53.3839206 46.6070469 32.7477695 45.0267659"></polygon>
                        <path d="M37,49 L37,49 C38.6568542,49 40,50.3431458 40,52 L40,56 L34,56 L34,52 C34,50.3431458 35.3431458,49 37,49 Z" id="矩形" fill="#87B8E4"></path>
                        <path d="M37.5,50 L37.5,50 C38.8807119,50 40,51.1192881 40,52.5 L40,56 L35,56 L35,52.5 C35,51.1192881 36.1192881,50 37.5,50 Z" id="矩形" fill="url(#linearGradient-9)"></path>
                        <path d="M40,70 L40,70 C41.6568542,70 43,71.3431458 43,73 L43,78 L37,78 L37,73 C37,71.3431458 38.3431458,70 40,70 Z" id="矩形备份-12" fill="#87B8E4"></path>
                        <path d="M40.5,71 L40.5,71 C41.8807119,71 43,72.1192881 43,73.5 L43,78 L38,78 L38,73.5 C38,72.1192881 39.1192881,71 40.5,71 Z" id="矩形备份-12" fill="url(#linearGradient-10)"></path>
                        <rect id="矩形" fill="#79BFFD" x="33" y="56" width="10" height="2"></rect>
                        <rect id="矩形" fill="url(#linearGradient-11)" x="32" y="55" width="10" height="2"></rect>
                    </g>
                    <path d="M257.455776,115.327308 C265.463905,115.327308 271.955776,115.666934 271.955776,112.07946 C271.955776,108.491986 265.463905,102.335915 257.455776,102.335915 C249.447647,102.335915 242.955776,108.491986 242.955776,112.07946 C242.955776,115.666934 249.447647,115.327308 257.455776,115.327308 Z" id="椭圆形" fill="url(#linearGradient-12)" opacity="0.64" transform="translate(257.455776, 108.835915) rotate(15.000000) translate(-257.455776, -108.835915) "></path>
                    <path d="M202.621339,121.582249 C255.383727,123.56196 279.676614,122.435434 275.5,118.202671 C269.235079,111.853525 234.470884,104 205.569538,104 C176.668191,104 133,116.461305 133,122.260576 C133,126.126757 156.207113,125.900648 202.621339,121.582249 Z" id="椭圆形" fill="url(#linearGradient-13)"></path>
                    <path d="M199.5,104.996689 C202.537566,104.996689 205,105.127315 205,103.747517 C205,102.367719 202.537566,100 199.5,100 C196.462434,100 194,102.367719 194,103.747517 C194,105.127315 196.462434,104.996689 199.5,104.996689 Z" id="椭圆形" fill="url(#linearGradient-14)" opacity="0.64"></path>
                    <path d="M207.5,104.998014 C209.432997,104.998014 211,105.076389 211,104.24851 C211,103.420632 209.432997,102 207.5,102 C205.567003,102 204,103.420632 204,104.24851 C204,105.076389 205.567003,104.998014 207.5,104.998014 Z" id="椭圆形" fill="url(#linearGradient-15)" opacity="0.64"></path>
                </g>
            </g>
        </g>
    </g>
</svg>