<svg width="49px" height="48px" viewBox="0 0 49 48" version="1.1" xmlns="http://www.w3.org/2000/svg" xmlns:xlink="http://www.w3.org/1999/xlink">
    <g id="页面1" stroke="none" stroke-width="1" fill="none" fill-rule="evenodd">
        <g id="大治安-发案预测" transform="translate(-61.000000, -203.000000)" fill="#3E82F6" fill-rule="nonzero">
            <g id="Icon/警情预测" transform="translate(61.000000, 203.000000)">
                <path d="M23.6823663,9.59827133 C23.0874652,10.0664701 22.3933835,10.4013734 21.6489494,10.5775281 C21.2431033,10.6983074 20.9735738,11.0745486 20.9956427,11.4894908 L20.9956427,13.0894255 C20.9958353,15.2268729 22.2243998,17.1821602 24.1723463,18.1452191 C24.3521431,18.2213005 24.5560264,18.2213005 24.7358233,18.1452191 L24.7358233,18.1132204 C26.6952533,17.186416 27.8514241,15.2604563 27.8961943,13.1294239 L27.8961943,11.4334931 C27.8951607,11.042534 27.6332152,10.6982357 27.2510539,10.5855277 C26.5489538,10.428048 25.8901121,10.1290287 25.3156329,9.70958809 L25.3156329,13.6014046 C25.3156329,14.1347162 25.0434218,14.4013719 24.4989996,14.4013719 C23.9545774,14.4013719 23.6823663,14.1347162 23.6823663,13.6014046 L23.6823663,9.59827133 Z M7.86485259,10.2648904 L12.2903315,14.4893684 C12.4562125,14.6286124 12.558227,14.8271564 12.573573,15.0406224 C12.588919,15.2540885 12.516317,15.4646785 12.3719948,15.625322 C12.0741214,15.956272 11.558952,15.988484 11.2205418,15.697319 L6.7640207,11.4492344 L3.94433893,16.2012984 C3.64872699,16.8438658 3.80299399,17.5994592 4.3281566,18.0812217 L9.92209484,22.2810502 C10.2116813,22.547189 10.3857619,22.8908294 10.4400894,23.25 L38.5837075,23.25 C38.6470209,22.9112336 38.8177366,22.5893222 39.0922371,22.3370479 L44.6698426,18.1372194 C45.1950052,17.6554569 45.3492722,16.8998635 45.0536603,16.2572962 L42.1503379,11.3642708 L36.9608241,15.697319 C36.622414,15.988484 36.1072445,15.9562719 35.8093711,15.625322 C35.6650489,15.4646785 35.592447,15.2540885 35.607793,15.0406224 C35.623139,14.8271564 35.7251534,14.6286124 35.8910345,14.4893684 L40.9388666,10.2430083 L25.2258033,4.00179661 C24.7743214,3.75385503 24.2236778,3.75385503 23.772196,4.00179661 L7.86485259,10.2648904 Z M6.890625,23.9228037 L0.538977988,18.9451864 C0.0132606246,18.4640977 -0.144024688,17.7097701 0.146994019,17.0652632 L4.64664359,8.6496068 C4.79012322,8.34195714 5.02676612,8.0850073 5.32444925,7.91363686 L23.772196,0.185952422 C24.2236778,-0.0619891565 24.7743214,-0.0619891565 25.2258033,0.185952422 L43.67355,7.91363686 C43.9712331,8.0850073 44.207876,8.34195714 44.3513556,8.6496068 L48.8673379,17.1212609 C49.1583566,17.7657678 49.0010713,18.5200954 48.4753539,19.0011841 L42.109375,23.9900329 L42.109375,31.125 C42.109375,35.479875 34.2251775,39 24.5,39 C14.7748225,39 6.890625,35.479875 6.890625,31.125 L6.890625,23.9228037 Z M9.953125,26.25 L9.953125,28.5 L39.046875,28.5 L39.046875,26.25 L9.953125,26.25 Z M24.5,36 C32.5331076,36 39.046875,33.99 39.046875,31.5 L9.953125,31.5 C9.95312495,33.99 16.4668923,36 24.5,36 Z M34.0378164,16.0705173 C34.448697,15.7206334 34.8327239,15.7469391 35.189897,16.1494345 C35.5470701,16.5519298 35.5202163,16.9281194 35.1093357,17.2780033 C34.698455,17.6278872 34.3144281,17.6015815 33.957255,17.1990861 C33.6000819,16.7965908 33.6269357,16.4204012 34.0378164,16.0705173 Z M13.0686286,17.2703577 C12.6577479,16.9204738 12.6308942,16.5442842 12.9880673,16.1417889 C13.3452404,15.7392935 13.7292673,15.7129878 14.1401479,16.0628717 C14.5510286,16.4127556 14.5778823,16.7889452 14.2207092,17.1914405 C13.8635361,17.5939358 13.4795092,17.6202415 13.0686286,17.2703577 Z M24.8909836,7.44965583 C25.9031786,8.42493718 27.1876004,9.08466185 28.5821662,9.34557839 C28.982857,9.45175612 29.2587277,9.81097849 29.2518055,10.2175428 L29.2926372,12.8014373 C29.2960623,12.8467067 29.2960623,12.8921623 29.2926372,12.9374317 C29.1293106,16.1692997 27.3735489,18.9611857 24.7113243,19.9931436 C24.5362563,20.0646963 24.339248,20.0646963 24.16418,19.9931436 C21.5264543,18.9131877 19.705362,16.0573043 19.5991997,12.857435 L19.5991997,10.2575412 C19.5742259,9.83744665 19.8484704,9.45603334 20.2606727,9.3375787 C21.636352,9.06871036 22.9021033,8.41260939 23.9028573,7.44965583 C24.0332873,7.32018749 24.2112333,7.24730829 24.3969205,7.24730829 C24.5826077,7.24730829 24.7605536,7.32018749 24.8909836,7.44965583 Z M0,42 L3.0625,42 L3.0625,48 L0,48 L0,42 Z M10.0036331,42 L13.0661331,42 L13.0661331,48 L10.0036331,48 L10.0036331,42 Z M19.140625,42 L49,42 L49,48 L19.140625,48 L19.140625,42 Z M21.4375,45.75 L46.703125,45.75 L46.703125,44.25 L21.4375,44.25 L21.4375,45.75 Z" id="形状结合"></path>
            </g>
        </g>
    </g>
</svg>