<svg xmlns="http://www.w3.org/2000/svg" xmlns:xlink="http://www.w3.org/1999/xlink" width="360" height="400" viewBox="0 0 360 400">
  <defs>
    <linearGradient id="登录_背景-b" x1="50%" x2="50%" y1="0%" y2="100%">
      <stop offset="0%" stop-color="#EDF4FF"/>
      <stop offset="100%" stop-color="#FFF"/>
    </linearGradient>
    <rect id="登录_背景-a" width="360" height="400" x="0" y="0" rx="8"/>
    <linearGradient id="登录_背景-c" x1="100%" x2="48.337%" y1="40.715%" y2="64.386%">
      <stop offset="0%" stop-color="#FFF" stop-opacity=".783"/>
      <stop offset="100%" stop-color="#FFF" stop-opacity="0"/>
    </linearGradient>
  </defs>
  <g fill="none" fill-rule="evenodd">
    <mask id="登录_背景-d" fill="#fff">
      <use xlink:href="#登录_背景-a"/>
    </mask>
    <use fill="url(#登录_背景-b)" xlink:href="#登录_背景-a"/>
    <path fill="url(#登录_背景-c)" d="M103.5,121 C173.916306,121 230,51.0863394 230,5.32907052e-14 C230,-51.0863394 70.4163056,1.0658141e-14 7.10542736e-14,1.0658141e-14 C-70.4163056,1.0658141e-14 -39,10.4136606 -39,61.5 C-39,112.586339 33.0836944,121 103.5,121 Z" mask="url(#登录_背景-d)"/>
    <path fill="#3E82F6" d="M3.55271368e-15,400 C29.6431925,400 43.2122595,400 40.707201,400 C34.4445547,391.157895 11.4139213,379 3.55271368e-15,379 C3.55271368e-15,379 3.55271368e-15,386 3.55271368e-15,400 Z" mask="url(#登录_背景-d)" opacity=".254"/>
    <path fill="#5E99FF" d="M3.55271368e-15,400 C25.6284153,400 37.1822091,400 34.6613813,400 C26.4686912,389.3125 11.4857714,382 3.55271368e-15,382 C3.55271368e-15,382 3.55271368e-15,388 3.55271368e-15,400 Z" mask="url(#登录_背景-d)" opacity=".64"/>
    <path fill="#3E82F6" d="M336.630435,17.1954877 C343.283515,17.9111768 351.07337,18.2641141 360,18.2542996 L360,0.254498715 L310,0.254498715 C311.064853,9.75323719 319.941665,15.4002335 336.630435,17.1954877 Z" mask="url(#登录_背景-d)" opacity=".32"/>
    <path fill="#3E82F6" d="M341.02513,15.199814 C346.34963,15.199814 352.674587,15.2039034 360,15.2120823 L360,0.212082262 L317,0.212082262 C318.622458,10.2039034 326.630834,15.199814 341.02513,15.199814 Z" mask="url(#登录_背景-d)" opacity=".64"/>
  </g>
</svg>
